<?xml version="1.0" ?>
<svg xmlns="http://www.w3.org/2000/svg" viewBox="0 0 900 500" width="900" height="500">
  <title>1D CNN Architecture Visualization</title>
  <g class="layer input">
    <rect x="75.0" y="50.0" width="30" height="400.0" fill="#f8d7da" stroke="#000" stroke-width="1"/>
  </g>
  <text x="90.0" y="480" text-anchor="middle" font-family="Arial" font-size="16" fill="#000000">Input layer</text>
  <g class="layer conv">
    <rect x="125.0" y="130.0" width="20" height="240.0" fill="#cfe2ff" stroke="#000" stroke-width="1"/>
    <rect x="155.0" y="142.0" width="20" height="216.0" fill="#cfe2ff" stroke="#000" stroke-width="1"/>
    <rect x="185.0" y="154.0" width="20" height="192.0" fill="#cfe2ff" stroke="#000" stroke-width="1"/>
    <rect x="215.0" y="166.0" width="20" height="168.0" fill="#cfe2ff" stroke="#000" stroke-width="1"/>
  </g>
  <text x="180.0" y="480" text-anchor="middle" font-family="Arial" font-size="16" fill="#000000">Convolutional layer1</text>
  <g class="layer pool">
    <rect x="215.0" y="162.5" width="20" height="175.00000000000003" fill="#fff3cd" stroke="#000" stroke-width="1"/>
    <rect x="245.0" y="171.25" width="20" height="157.50000000000003" fill="#fff3cd" stroke="#000" stroke-width="1"/>
    <rect x="275.0" y="180.0" width="20" height="140.00000000000003" fill="#fff3cd" stroke="#000" stroke-width="1"/>
    <rect x="305.0" y="188.75" width="20" height="122.50000000000001" fill="#fff3cd" stroke="#000" stroke-width="1"/>
  </g>
  <text x="270.0" y="480" text-anchor="middle" font-family="Arial" font-size="16" fill="#000000">Max-pooling layer1</text>
  <g class="layer conv">
    <rect x="305.0" y="160.0" width="20" height="180.00000000000003" fill="#cfe2ff" stroke="#000" stroke-width="1"/>
    <rect x="335.0" y="169.0" width="20" height="162.00000000000003" fill="#cfe2ff" stroke="#000" stroke-width="1"/>
    <rect x="365.0" y="178.0" width="20" height="144.00000000000003" fill="#cfe2ff" stroke="#000" stroke-width="1"/>
    <rect x="395.0" y="187.0" width="20" height="126.00000000000001" fill="#cfe2ff" stroke="#000" stroke-width="1"/>
  </g>
  <text x="360.0" y="480" text-anchor="middle" font-family="Arial" font-size="16" fill="#000000">Convolutional layer2</text>
  <g class="layer pool">
    <rect x="395.0" y="187.5" width="20" height="125.0" fill="#fff3cd" stroke="#000" stroke-width="1"/>
    <rect x="425.0" y="193.75" width="20" height="112.5" fill="#fff3cd" stroke="#000" stroke-width="1"/>
    <rect x="455.0" y="200.0" width="20" height="100.0" fill="#fff3cd" stroke="#000" stroke-width="1"/>
    <rect x="485.0" y="206.25" width="20" height="87.5" fill="#fff3cd" stroke="#000" stroke-width="1"/>
  </g>
  <text x="450.0" y="480" text-anchor="middle" font-family="Arial" font-size="16" fill="#000000">Max-pooling layer2</text>
  <g class="layer fc">
    <rect x="530.0" y="150.0" width="20" height="200.0" fill="#ffeaa7" stroke="#000" stroke-width="1"/>
    <circle cx="540.0" cy="168.1818181818182" r="3" fill="white" stroke="#000" stroke-width="0.5"/>
    <circle cx="540.0" cy="186.36363636363637" r="3" fill="white" stroke="#000" stroke-width="0.5"/>
    <circle cx="540.0" cy="204.54545454545456" r="3" fill="white" stroke="#000" stroke-width="0.5"/>
    <circle cx="540.0" cy="222.72727272727275" r="3" fill="white" stroke="#000" stroke-width="0.5"/>
    <circle cx="540.0" cy="240.90909090909093" r="3" fill="white" stroke="#000" stroke-width="0.5"/>
    <circle cx="540.0" cy="259.0909090909091" r="3" fill="white" stroke="#000" stroke-width="0.5"/>
    <circle cx="540.0" cy="277.27272727272725" r="3" fill="white" stroke="#000" stroke-width="0.5"/>
    <circle cx="540.0" cy="295.4545454545455" r="3" fill="white" stroke="#000" stroke-width="0.5"/>
    <circle cx="540.0" cy="313.6363636363636" r="3" fill="white" stroke="#000" stroke-width="0.5"/>
    <circle cx="540.0" cy="331.81818181818187" r="3" fill="white" stroke="#000" stroke-width="0.5"/>
  </g>
  <text x="540.0" y="480" text-anchor="middle" font-family="Arial" font-size="16" fill="#000000">Fully connected layer</text>
  <g class="layer fc">
    <rect x="620.0" y="170.0" width="20" height="160.0" fill="#ffeaa7" stroke="#000" stroke-width="1"/>
    <circle cx="630.0" cy="184.54545454545453" r="3" fill="white" stroke="#000" stroke-width="0.5"/>
    <circle cx="630.0" cy="199.0909090909091" r="3" fill="white" stroke="#000" stroke-width="0.5"/>
    <circle cx="630.0" cy="213.63636363636363" r="3" fill="white" stroke="#000" stroke-width="0.5"/>
    <circle cx="630.0" cy="228.1818181818182" r="3" fill="white" stroke="#000" stroke-width="0.5"/>
    <circle cx="630.0" cy="242.72727272727272" r="3" fill="white" stroke="#000" stroke-width="0.5"/>
    <circle cx="630.0" cy="257.27272727272725" r="3" fill="white" stroke="#000" stroke-width="0.5"/>
    <circle cx="630.0" cy="271.8181818181818" r="3" fill="white" stroke="#000" stroke-width="0.5"/>
    <circle cx="630.0" cy="286.3636363636364" r="3" fill="white" stroke="#000" stroke-width="0.5"/>
    <circle cx="630.0" cy="300.9090909090909" r="3" fill="white" stroke="#000" stroke-width="0.5"/>
    <circle cx="630.0" cy="315.45454545454544" r="3" fill="white" stroke="#000" stroke-width="0.5"/>
  </g>
  <text x="630.0" y="480" text-anchor="middle" font-family="Arial" font-size="16" fill="#000000">fc2</text>
  <g class="layer fc">
    <rect x="710.0" y="190.0" width="20" height="120.0" fill="#ffeaa7" stroke="#000" stroke-width="1"/>
    <circle cx="720.0" cy="200.9090909090909" r="3" fill="white" stroke="#000" stroke-width="0.5"/>
    <circle cx="720.0" cy="211.8181818181818" r="3" fill="white" stroke="#000" stroke-width="0.5"/>
    <circle cx="720.0" cy="222.72727272727272" r="3" fill="white" stroke="#000" stroke-width="0.5"/>
    <circle cx="720.0" cy="233.63636363636363" r="3" fill="white" stroke="#000" stroke-width="0.5"/>
    <circle cx="720.0" cy="244.54545454545453" r="3" fill="white" stroke="#000" stroke-width="0.5"/>
    <circle cx="720.0" cy="255.45454545454544" r="3" fill="white" stroke="#000" stroke-width="0.5"/>
    <circle cx="720.0" cy="266.3636363636364" r="3" fill="white" stroke="#000" stroke-width="0.5"/>
    <circle cx="720.0" cy="277.27272727272725" r="3" fill="white" stroke="#000" stroke-width="0.5"/>
    <circle cx="720.0" cy="288.1818181818182" r="3" fill="white" stroke="#000" stroke-width="0.5"/>
    <circle cx="720.0" cy="299.09090909090907" r="3" fill="white" stroke="#000" stroke-width="0.5"/>
  </g>
  <text x="720.0" y="480" text-anchor="middle" font-family="Arial" font-size="16" fill="#000000">fc3</text>
  <g class="layer output">
    <circle cx="810.0" cy="250.0" r="8" fill="#17a2b8" stroke="#000" stroke-width="1"/>
  </g>
  <text x="810.0" y="480" text-anchor="middle" font-family="Arial" font-size="16" fill="#000000">Output layer</text>
  <g class="arrow">
    <path d="M 110.0 250.0 L 160.0 250.0" stroke="#aaaaaa" stroke-width="3" marker-end="url(#arrowhead)"/>
    <polygon points="145.0,250.0 130.0,245.0 130.0,255.0" fill="#aaaaaa"/>
  </g>
  <g class="arrow">
    <path d="M 200.0 250.0 L 250.0 250.0" stroke="#aaaaaa" stroke-width="3" marker-end="url(#arrowhead)"/>
    <polygon points="235.0,250.0 220.0,245.0 220.0,255.0" fill="#aaaaaa"/>
  </g>
  <g class="arrow">
    <path d="M 290.0 250.0 L 340.0 250.0" stroke="#aaaaaa" stroke-width="3" marker-end="url(#arrowhead)"/>
    <polygon points="325.0,250.0 310.0,245.0 310.0,255.0" fill="#aaaaaa"/>
  </g>
  <g class="arrow">
    <path d="M 380.0 250.0 L 430.0 250.0" stroke="#aaaaaa" stroke-width="3" marker-end="url(#arrowhead)"/>
    <polygon points="415.0,250.0 400.0,245.0 400.0,255.0" fill="#aaaaaa"/>
  </g>
  <g class="arrow">
    <path d="M 470.0 250.0 L 520.0 250.0" stroke="#aaaaaa" stroke-width="3" marker-end="url(#arrowhead)"/>
    <polygon points="505.0,250.0 490.0,245.0 490.0,255.0" fill="#aaaaaa"/>
  </g>
  <g class="arrow">
    <path d="M 560.0 250.0 L 610.0 250.0" stroke="#aaaaaa" stroke-width="3" marker-end="url(#arrowhead)"/>
    <polygon points="595.0,250.0 580.0,245.0 580.0,255.0" fill="#aaaaaa"/>
  </g>
  <g class="arrow">
    <path d="M 650.0 250.0 L 700.0 250.0" stroke="#aaaaaa" stroke-width="3" marker-end="url(#arrowhead)"/>
    <polygon points="685.0,250.0 670.0,245.0 670.0,255.0" fill="#aaaaaa"/>
  </g>
  <g class="arrow">
    <path d="M 740.0 250.0 L 790.0 250.0" stroke="#aaaaaa" stroke-width="3" marker-end="url(#arrowhead)"/>
    <polygon points="775.0,250.0 760.0,245.0 760.0,255.0" fill="#aaaaaa"/>
  </g>
  <path d="M 180.0 125.0 Q 270.0 83.33333333333333, 360.0 125.0" stroke="#333333" stroke-width="2" stroke-dasharray="5,5" fill="none"/>
</svg>
